<svg width="257" height="256" viewBox="0 0 257 256" fill="none" xmlns="http://www.w3.org/2000/svg">
<circle cx="128.666" cy="127.997" r="128" fill="url(#paint0_linear_125_278)"/>
<g clip-path="url(#clip0_125_278)">
<path fill-rule="evenodd" clip-rule="evenodd" d="M187.211 58.6094H158.271C155.396 58.6094 152.638 59.7518 150.604 61.7852C148.571 63.8187 147.428 66.5766 147.428 69.4524C147.428 72.3281 148.571 75.086 150.604 77.1195C152.638 79.153 155.396 80.2953 158.271 80.2953H161.047L142.576 98.7571C135.029 106.337 130.791 116.598 130.791 127.294C130.791 137.99 135.029 148.251 142.576 155.831C144.611 157.864 147.37 159.005 150.246 159.004C153.122 159.002 155.88 157.859 157.913 155.824C159.946 153.789 161.087 151.03 161.086 148.154C161.084 145.278 159.941 142.52 157.906 140.487C154.425 136.973 152.473 132.228 152.473 127.282C152.473 122.337 154.425 117.591 157.906 114.078L176.372 95.6161V98.3916C176.431 101.228 177.599 103.928 179.625 105.914C181.652 107.899 184.376 109.011 187.213 109.011C190.05 109.011 192.774 107.899 194.801 105.914C196.827 103.928 197.995 101.228 198.054 98.3916V69.4524C198.054 68.0283 197.774 66.618 197.229 65.3022C196.685 63.9864 195.886 62.7908 194.879 61.7839C193.872 60.7769 192.677 59.9782 191.361 59.4335C190.045 58.8888 188.635 58.6088 187.211 58.6094ZM198.054 128.187C198.017 125.348 196.868 122.637 194.854 120.636C192.841 118.635 190.122 117.503 187.283 117.484C184.444 117.466 181.711 118.561 179.671 120.535C177.631 122.51 176.447 125.205 176.372 128.043C176.368 128.091 176.368 128.139 176.372 128.187V175.699H80.9597V80.2953H128.476C129.9 80.3044 131.312 80.033 132.631 79.4965C133.95 78.96 135.15 78.169 136.164 77.1686C137.177 76.1681 137.983 74.9779 138.537 73.6659C139.09 72.3538 139.38 70.9457 139.389 69.5217C139.398 68.0978 139.126 66.686 138.59 65.367C138.053 64.048 137.262 62.8476 136.262 61.8343C135.261 60.821 134.071 60.0146 132.759 59.4613C131.447 58.908 130.039 58.6185 128.615 58.6094H70.1213C68.6972 58.6088 67.287 58.8888 65.9712 59.4335C64.6553 59.9782 63.4598 60.7769 62.4528 61.7839C61.4458 62.7908 60.6472 63.9864 60.1025 65.3022C59.5578 66.618 59.2777 68.0283 59.2783 69.4524V186.542C59.2777 187.966 59.5578 189.376 60.1025 190.692C60.6472 192.008 61.4458 193.203 62.4528 194.21C63.4598 195.217 64.6553 196.016 65.9712 196.561C67.287 197.105 68.6972 197.385 70.1213 197.385H187.211C188.635 197.385 190.045 197.105 191.361 196.561C192.677 196.016 193.872 195.217 194.879 194.21C195.886 193.203 196.685 192.008 197.229 190.692C197.774 189.376 198.054 187.966 198.054 186.542V128.187Z" fill="white"/>
</g>
<defs>
<linearGradient id="paint0_linear_125_278" x1="128.666" y1="-42.7871" x2="128.666" y2="289.971" gradientUnits="userSpaceOnUse">
<stop offset="0.0258033" stop-color="#4D00FF"/>
<stop offset="0.5" stop-color="#8254EC"/>
<stop offset="0.684344" stop-color="#7B60B9"/>
</linearGradient>
<clipPath id="clip0_125_278">
<rect width="138.775" height="138.775" fill="white" transform="translate(59.2783 58.6094)"/>
</clipPath>
</defs>
</svg>
